<svg width="58" height="59" viewBox="0 0 58 59" fill="none" xmlns="http://www.w3.org/2000/svg">
<g id="Desktop">
<path id="Vector" d="M46.9001 8.78882H10.9001C9.22923 8.78882 7.6268 9.45257 6.44532 10.634C5.26385 11.8155 4.6001 13.418 4.6001 15.0888V39.3888C4.6001 41.0597 5.26385 42.6621 6.44532 43.8436C7.6268 45.0251 9.22923 45.6888 10.9001 45.6888H26.2001V48.3888H21.7001C20.984 48.3888 20.2973 48.6733 19.7909 49.1796C19.2846 49.686 19.0001 50.3727 19.0001 51.0888C19.0001 51.8049 19.2846 52.4917 19.7909 52.998C20.2973 53.5044 20.984 53.7888 21.7001 53.7888H36.1001C36.8162 53.7888 37.5029 53.5044 38.0093 52.998C38.5156 52.4917 38.8001 51.8049 38.8001 51.0888C38.8001 50.3727 38.5156 49.686 38.0093 49.1796C37.5029 48.6733 36.8162 48.3888 36.1001 48.3888H31.6001V45.6888H46.9001C47.7274 45.6888 48.5467 45.5259 49.311 45.2093C50.0754 44.8927 50.7699 44.4286 51.3549 43.8436C51.9399 43.2586 52.4039 42.5641 52.7205 41.7997C53.0371 41.0354 53.2001 40.2161 53.2001 39.3888V15.0888C53.2001 14.2615 53.0371 13.4423 52.7205 12.6779C52.4039 11.9136 51.9399 11.2191 51.3549 10.634C50.7699 10.049 50.0754 9.58498 49.311 9.26838C48.5467 8.95177 47.7274 8.78882 46.9001 8.78882ZM10.9001 14.1888H46.9001C47.1388 14.1888 47.3677 14.2836 47.5365 14.4524C47.7053 14.6212 47.8001 14.8501 47.8001 15.0888V31.2888H10.0001V15.0888C10.0001 14.8501 10.0949 14.6212 10.2637 14.4524C10.4325 14.2836 10.6614 14.1888 10.9001 14.1888ZM46.9001 40.2888H10.9001C10.6614 40.2888 10.4325 40.194 10.2637 40.0252C10.0949 39.8564 10.0001 39.6275 10.0001 39.3888V36.6888H47.8001V39.3888C47.8001 39.6275 47.7053 39.8564 47.5365 40.0252C47.3677 40.194 47.1388 40.2888 46.9001 40.2888Z" fill="white"/>
</g>
</svg>
