<svg width="58" height="59" viewBox="0 0 58 59" fill="none" xmlns="http://www.w3.org/2000/svg">
<g id="Heart">
<path id="Vector" d="M40.35 8.78882C35.8298 8.78882 31.818 10.5731 29.1 13.6398C26.382 10.5731 22.3703 8.78882 17.85 8.78882C13.913 8.79358 10.1386 10.3597 7.35473 13.1435C4.57084 15.9274 3.00476 19.7018 3 23.6388C3 39.9153 26.8073 52.9203 27.8198 53.4671C28.2132 53.679 28.6531 53.7899 29.1 53.7899C29.5469 53.7899 29.9868 53.679 30.3803 53.4671C31.3928 52.9203 55.2 39.9153 55.2 23.6388C55.1952 19.7018 53.6292 15.9274 50.8453 13.1435C48.0614 10.3597 44.287 8.79358 40.35 8.78882ZM39.1148 40.8198C35.9811 43.4789 32.6313 45.8722 29.1 47.9748C25.5687 45.8722 22.2189 43.4789 19.0853 40.8198C14.2095 36.6371 8.4 30.2583 8.4 23.6388C8.4 21.1325 9.39562 18.7289 11.1678 16.9567C12.9401 15.1844 15.3437 14.1888 17.85 14.1888C21.855 14.1888 25.2075 16.3038 26.6003 19.7103C26.803 20.2069 27.149 20.6319 27.5942 20.931C28.0394 21.2301 28.5636 21.3899 29.1 21.3899C29.6364 21.3899 30.1606 21.2301 30.6058 20.931C31.051 20.6319 31.397 20.2069 31.5998 19.7103C32.9925 16.3038 36.345 14.1888 40.35 14.1888C42.8563 14.1888 45.2599 15.1844 47.0322 16.9567C48.8044 18.7289 49.8 21.1325 49.8 23.6388C49.8 30.2583 43.9905 36.6371 39.1148 40.8198Z" fill="white"/>
</g>
</svg>
