<svg width="25" height="25" viewBox="0 0 25 25" fill="none" xmlns="http://www.w3.org/2000/svg">
<path d="M19.6975 18.478C19.9089 18.6894 20.0276 18.976 20.0276 19.2749C20.0276 19.5738 19.9089 19.8604 19.6975 20.0718C19.4862 20.2831 19.1995 20.4019 18.9006 20.4019C18.6017 20.4019 18.3151 20.2831 18.1038 20.0718L12.1516 14.1177L6.19751 20.0699C5.98616 20.2813 5.69952 20.4 5.40063 20.4C5.10175 20.4 4.8151 20.2813 4.60376 20.0699C4.39241 19.8586 4.27368 19.5719 4.27368 19.273C4.27368 18.9741 4.39241 18.6875 4.60376 18.4762L10.5578 12.524L4.60563 6.56991C4.39429 6.35856 4.27556 6.07192 4.27556 5.77303C4.27556 5.47414 4.39429 5.1875 4.60563 4.97616C4.81698 4.76481 5.10362 4.64608 5.40251 4.64608C5.70139 4.64608 5.98804 4.76481 6.19938 4.97616L12.1516 10.9302L18.1056 4.97522C18.317 4.76387 18.6036 4.64514 18.9025 4.64514C19.2014 4.64514 19.488 4.76387 19.6994 4.97522C19.9107 5.18656 20.0295 5.47321 20.0295 5.77209C20.0295 6.07098 19.9107 6.35762 19.6994 6.56897L13.7453 12.524L19.6975 18.478Z" fill="white"/>
</svg>
