<svg width="58" height="59" viewBox="0 0 58 59" fill="none" xmlns="http://www.w3.org/2000/svg">
<g id="Leaf">
<path id="Vector" d="M51.3695 9.65742C51.3309 8.99689 51.0511 8.37351 50.5833 7.90564C50.1154 7.43778 49.492 7.158 48.8315 7.11942C39.9215 6.59517 32.0487 7.64592 25.4315 10.2402C19.1 12.7219 14.2197 16.5694 11.3127 21.3664C7.34824 27.9162 7.33924 35.8677 11.2115 43.4592L7.28974 47.3809C7.03859 47.6321 6.83936 47.9302 6.70344 48.2584C6.56752 48.5865 6.49756 48.9382 6.49756 49.2934C6.49756 49.6486 6.56752 50.0003 6.70344 50.3285C6.83936 50.6566 7.03859 50.9548 7.28974 51.2059C7.79697 51.7132 8.48491 51.9981 9.20224 51.9981C9.55743 51.9981 9.90913 51.9281 10.2373 51.7922C10.5654 51.6563 10.8636 51.4571 11.1147 51.2059L15.0365 47.2842C18.803 49.2057 22.6595 50.1754 26.3877 50.1754C30.1756 50.1872 33.8931 49.1516 37.1292 47.1829C41.9262 44.2759 45.7737 39.3934 48.2555 33.0642C50.843 26.4424 51.8937 18.5674 51.3695 9.65742ZM34.3235 42.5569C29.8032 45.2952 24.5 45.5022 19.0865 43.2139L38.108 24.1924C38.3591 23.9413 38.5584 23.6431 38.6943 23.315C38.8302 22.9868 38.9002 22.6351 38.9002 22.2799C38.9002 21.9247 38.8302 21.573 38.6943 21.2449C38.5584 20.9167 38.3591 20.6186 38.108 20.3674C37.8568 20.1163 37.5587 19.917 37.2305 19.7811C36.9024 19.6452 36.5507 19.5752 36.1955 19.5752C35.8403 19.5752 35.4886 19.6452 35.1605 19.7811C34.8323 19.917 34.5341 20.1163 34.283 20.3674L15.275 39.4024C12.9935 34.0024 13.2005 28.6857 15.95 24.1654C20.6547 16.3962 31.8215 12.0784 46.1 12.4092C46.4105 26.6832 42.0927 37.8522 34.3235 42.5569Z" fill="white"/>
</g>
</svg>
