<svg width="59" height="59" viewBox="0 0 59 59" fill="none" xmlns="http://www.w3.org/2000/svg">
<g id="Microscope">
<path id="Vector" d="M51.3004 46.5888H48.6004C50.5951 43.6658 51.8081 40.2806 52.1237 36.7559C52.4393 33.2312 51.8469 29.6844 50.4032 26.4535C48.9594 23.2226 46.7123 20.4153 43.876 18.2991C41.0397 16.1828 37.7086 14.8282 34.2004 14.3643V7.88879C34.2004 6.69532 33.7263 5.55073 32.8824 4.70681C32.0385 3.8629 30.8939 3.38879 29.7004 3.38879H18.9004C17.7069 3.38879 16.5623 3.8629 15.7184 4.70681C14.8745 5.55073 14.4004 6.69532 14.4004 7.88879V29.4888C14.4004 30.6823 14.8745 31.8269 15.7184 32.6708C16.5623 33.5147 17.7069 33.9888 18.9004 33.9888H29.7004C30.8939 33.9888 32.0385 33.5147 32.8824 32.6708C33.7263 31.8269 34.2004 30.6823 34.2004 29.4888V19.8318C37.7312 20.4693 40.9263 22.3256 43.2288 25.0771C45.5313 27.8286 46.7953 31.3009 46.8004 34.8888C46.8098 37.1191 46.3272 39.324 45.3868 41.3464C44.4464 43.3687 43.0714 45.1587 41.3599 46.5888H8.10039C7.38431 46.5888 6.69755 46.8733 6.1912 47.3796C5.68485 47.886 5.40039 48.5727 5.40039 49.2888C5.40039 50.0049 5.68485 50.6916 6.1912 51.198C6.69755 51.7043 7.38431 51.9888 8.10039 51.9888H51.3004C52.0165 51.9888 52.7032 51.7043 53.2096 51.198C53.7159 50.6916 54.0004 50.0049 54.0004 49.2888C54.0004 48.5727 53.7159 47.886 53.2096 47.3796C52.7032 46.8733 52.0165 46.5888 51.3004 46.5888ZM28.8004 28.5888H19.8004V8.78879H28.8004V28.5888ZM17.1004 42.9888C16.3843 42.9888 15.6975 42.7043 15.1912 42.198C14.6849 41.6916 14.4004 41.0049 14.4004 40.2888C14.4004 39.5727 14.6849 38.886 15.1912 38.3796C15.6975 37.8733 16.3843 37.5888 17.1004 37.5888H31.5004C32.2165 37.5888 32.9032 37.8733 33.4096 38.3796C33.9159 38.886 34.2004 39.5727 34.2004 40.2888C34.2004 41.0049 33.9159 41.6916 33.4096 42.198C32.9032 42.7043 32.2165 42.9888 31.5004 42.9888H17.1004Z" fill="white"/>
</g>
</svg>
