<svg width="59" height="59" viewBox="0 0 59 59" fill="none" xmlns="http://www.w3.org/2000/svg">
<g id="RoadHorizon">
<path id="Vector" d="M54.0231 46.2423C53.3989 46.5931 52.6609 46.6817 51.9714 46.4884C51.2819 46.2952 50.6975 45.836 50.3466 45.2118L34.9251 17.7888H32.0001V18.6888C32.0001 19.4049 31.7156 20.0916 31.2092 20.598C30.7029 21.1043 30.0161 21.3888 29.3001 21.3888C28.584 21.3888 27.8972 21.1043 27.3909 20.598C26.8845 20.0916 26.6001 19.4049 26.6001 18.6888V17.7888H23.6751L8.25356 45.2118C8.08179 45.5245 7.84973 45.8001 7.57081 46.0226C7.29188 46.2452 6.97162 46.4102 6.62853 46.5082C6.28544 46.6062 5.92633 46.6352 5.57196 46.5936C5.21759 46.5519 4.87498 46.4405 4.56395 46.2656C4.25291 46.0908 3.97962 45.856 3.75986 45.5749C3.54011 45.2938 3.37825 44.9719 3.28365 44.6279C3.18904 44.2838 3.16357 43.9245 3.20869 43.5705C3.25382 43.2166 3.36865 42.8751 3.54656 42.5658L17.4831 17.7888H5.90006C5.18397 17.7888 4.49722 17.5043 3.99087 16.998C3.48452 16.4916 3.20006 15.8049 3.20006 15.0888C3.20006 14.3727 3.48452 13.686 3.99087 13.1796C4.49722 12.6733 5.18397 12.3888 5.90006 12.3888H52.7001C53.4161 12.3888 54.1029 12.6733 54.6092 13.1796C55.1156 13.686 55.4001 14.3727 55.4001 15.0888C55.4001 15.8049 55.1156 16.4916 54.6092 16.998C54.1029 17.5043 53.4161 17.7888 52.7001 17.7888H41.1171L55.0536 42.5658C55.4044 43.19 55.4929 43.928 55.2997 44.6175C55.1064 45.3069 54.6472 45.8914 54.0231 46.2423ZM29.3001 24.9888C28.584 24.9888 27.8972 25.2733 27.3909 25.7796C26.8845 26.286 26.6001 26.9727 26.6001 27.6888V31.2888C26.6001 32.0049 26.8845 32.6916 27.3909 33.198C27.8972 33.7043 28.584 33.9888 29.3001 33.9888C30.0161 33.9888 30.7029 33.7043 31.2092 33.198C31.7156 32.6916 32.0001 32.0049 32.0001 31.2888V27.6888C32.0001 26.9727 31.7156 26.286 31.2092 25.7796C30.7029 25.2733 30.0161 24.9888 29.3001 24.9888ZM29.3001 37.5888C28.584 37.5888 27.8972 37.8733 27.3909 38.3796C26.8845 38.886 26.6001 39.5727 26.6001 40.2888V43.8888C26.6001 44.6049 26.8845 45.2916 27.3909 45.798C27.8972 46.3043 28.584 46.5888 29.3001 46.5888C30.0161 46.5888 30.7029 46.3043 31.2092 45.798C31.7156 45.2916 32.0001 44.6049 32.0001 43.8888V40.2888C32.0001 39.5727 31.7156 38.886 31.2092 38.3796C30.7029 37.8733 30.0161 37.5888 29.3001 37.5888Z" fill="white"/>
</g>
</svg>
